# xmcd
#
# Track frame offsets: 
#        150
#        11479
#        22746
#        35273
#        46397
#        58934
#        71194
#        82915
#        96112
#        107961
#        118219
#        131996
#        142897
#        164988
#        181460
#        194096
#        206715
#        220643
#        236747
#        249052
#        268053
#        281679
#        295929
#        306335
#        317476
#        331086
#
# Disc length: 4635 seconds
#
# Revision: 1
# Processed by: cddbd v1.5.2PL0 Copyright (c) Steve Scherf et al.
# Submitted via: ExactAudioCopy v1.0b3
#
DISCID=8d12191a
DTITLE=Freddie King - Taking Care of Business [CD2]
DYEAR=2009
DGENRE=Blues
TTITLE0=Just Pickin'
TTITLE1=Heads Up
TTITLE2=Christmas Tears
TTITLE3=Let Me Be (Stay Away From Me)
TTITLE4=Takin' Care of Business
TTITLE5=You Mean, Mean Woman (How Can Your Love Be True)
TTITLE6=I Hear Jingle Bells
TTITLE7=In the Open
TTITLE8=Out Front
TTITLE9=Swooshy
TTITLE10=Closed Door (High Rise)
TTITLE11=Texas Oil
TTITLE12=She Put The Whammy On Me
TTITLE13=I'm On My Way to Atlanta
TTITLE14=Over Drive (The Untouchable Glide)
TTITLE15=Driving Sideways
TTITLE16=Sittin' On The Boat Dock
TTITLE17=Come On
TTITLE18=Do The President Twist
TTITLE19=(Let Your Love) Watch Over Me
TTITLE20=You Can't Hide
TTITLE21=It's Easy Child
TTITLE22=Just Pickin' (alternate take)
TTITLE23=Heads Up (alternate take)
TTITLE24=Closed Door (High Rise) (alternate take)
TTITLE25=I'm On My Way to Atlanta (alternate take)
EXTD=
EXTT0=
EXTT1=
EXTT2=
EXTT3=
EXTT4=
EXTT5=
EXTT6=
EXTT7=
EXTT8=
EXTT9=
EXTT10=
EXTT11=
EXTT12=
EXTT13=
EXTT14=
EXTT15=
EXTT16=
EXTT17=
EXTT18=
EXTT19=
EXTT20=
EXTT21=
EXTT22=
EXTT23=
EXTT24=
EXTT25=
PLAYORDER=
